<?xml version="1.0" standalone="no"?>
<!DOCTYPE svg PUBLIC "-//W3C//DTD SVG 20010904//EN"
 "http://www.w3.org/TR/2001/REC-SVG-20010904/DTD/svg10.dtd">
<svg version="1.0" xmlns="http://www.w3.org/2000/svg"
 width="980.000000pt" height="690.000000pt" viewBox="0 0 980.000000 690.000000"
 preserveAspectRatio="xMidYMid meet">
<metadata>
Created by potrace 1.14, written by Peter Selinger 2001-2017
</metadata>
<g transform="translate(0.000000,690.000000) scale(0.100000,-0.100000)"
fill="#000000" stroke="none">
<path d="M4875 6864 c-55 -19 -1085 -371 -2290 -780 -1204 -410 -2212 -756
-2240 -768 -98 -44 -152 -110 -141 -170 8 -40 65 -96 131 -129 28 -13 284
-104 570 -201 286 -98 523 -180 528 -183 5 -3 -20 -35 -55 -72 -225 -235 -355
-518 -403 -879 -9 -64 -19 -203 -22 -308 l-6 -190 -56 -30 c-168 -88 -273
-299 -242 -488 7 -39 25 -99 41 -134 32 -70 120 -168 176 -198 l36 -19 -7 -55
c-13 -104 -66 -340 -106 -473 -131 -426 -375 -871 -698 -1274 l-90 -113 42
-34 c80 -65 297 -206 389 -252 50 -25 132 -61 180 -80 l89 -34 77 39 c377 191
584 535 642 1066 27 247 24 505 -12 1056 l-12 186 57 57 c147 149 178 366 81
559 -15 29 -57 82 -97 120 l-70 68 7 112 c34 543 190 910 497 1168 l46 39 84
-29 c46 -16 692 -236 1434 -489 743 -254 1402 -479 1465 -501 63 -23 131 -41
150 -41 19 0 80 16 135 36 55 19 235 82 400 139 165 57 426 147 580 200 1212
418 1658 572 2030 700 1139 391 1417 489 1472 515 95 47 144 114 129 175 -11
42 -81 101 -159 133 -40 16 -1015 355 -2167 752 -1152 397 -2171 749 -2265
781 -93 33 -183 59 -200 59 -16 0 -75 -16 -130 -36z"/>
<path d="M7140 3420 c-635 -220 -1357 -469 -1605 -555 -262 -90 -465 -155
-486 -155 -20 0 -108 25 -195 56 -186 65 -2854 974 -2860 974 -2 0 -4 -492 -4
-1093 0 -1199 -2 -1154 60 -1261 393 -682 2394 -1075 4220 -830 735 98 1347
294 1708 547 134 93 259 237 306 351 21 51 21 59 24 1209 1 636 -1 1157 -5
1156 -5 0 -528 -180 -1163 -399z"/>
</g>
</svg>
