<!-- Generated by IcoMoon.io -->
<svg version="1.1" xmlns="http://www.w3.org/2000/svg" width="64" height="64" viewBox="0 0 64 64">
<title>aqa-default-conclusion</title>
<path fill="#000" d="M32 63.6c-17.6 0-31.6-14.4-31.6-31.6s14-31.6 31.6-31.6 31.6 14.4 31.6 31.6-14 31.6-31.6 31.6zM32 3.2c-16 0-28.8 12.8-28.8 28.8s12.8 28.8 28.8 28.8c16 0 28.8-12.8 28.8-28.8s-12.8-28.8-28.8-28.8z"></path>
<path fill="#010101" d="M51.2 16.8h-9.6v-1.6c0-0.4-0.4-0.8-0.8-0.8s-0.8 0.4-0.8 0.8v2h-9.6c-1.2-0.4-2.4 0.8-2.4 2v3.2l-1.2-0.4c-0.4 0-3.2-1.2-6-1.2l-0.4 0.8 1.2 8-1.2 2-1.2-2 1.2-8-0.8-0.8c-2.8 0-6 1.2-6 1.2s0 0 0 0 0 0-0.4 0c0 0 0 0 0 0s0 0 0 0.4c0 0 0 0 0 0.4 0 0 0 0 0 0l-2.8 11.2c0 0.8 0.4 1.6 1.2 2 0 0 0.4 0 0.4 0 0.8 0 1.2-0.4 1.6-1.2l2.4-10c0 0 0.4 0 0.4 0v10.4l-1.2 15.2c0 1.2 0.8 2 1.6 2 0 0 0 0 0 0 0.8 0 1.6-0.8 2-1.6l1.2-13.6c0.4 0 0.4 0 0.8 0s0.4 0 0.8 0l1.2 13.6c-0.4 0.4 0.4 1.2 1.2 1.2 0 0 0 0 0 0 1.2 0 1.6-0.8 1.6-2l-0.8-15.2v-10.4c0.8 0.4 1.2 0.4 1.2 0.4s0 0 0 0 0 0 0 0l2 0.8v8c0 1.2 1.2 2.4 2.4 2.4h4.4l-4 14.4c0 0.4 0 0.8 0.8 1.2 0 0 0 0 0.4 0s0.8-0.4 0.8-0.8l4-14.8h3.2v10.4c0 0.4 0.4 0.8 0.8 0.8s0.8-0.4 0.8-0.8v-10h3.2l4 14.8c0 0.4 0.4 0.8 0.8 0.8 0 0 0 0 0.4 0s0.8-0.8 0.8-1.2l-4-14.4h4.4c1.2 0 2.4-1.2 2.4-2.4v-14.8c0-1.2-1.2-2.4-2.4-2.4zM52.4 34c0 0.8-0.4 1.2-1.2 1.2h-20.8c-0.8 0-1.2-0.4-1.2-1.2v-8l4 1.2c0 0 0.4 0 0.4 0 0.8 0 1.2-0.4 1.6-1.2 0 0 0-0.4 0-0.4l9.2-4.4c0 0 0.4-0.4 0-0.4 0 0-0.4-0.4-0.4 0l-8.8 4c0-0.4-0.4-0.8-0.8-0.8l-5.2-1.2v-3.6c0-0.8 0.4-1.2 1.2-1.2h20.8c0.8 0 1.2 0.4 1.2 1.2v14.8z"></path>
<path fill="#010101" d="M20.4 20.4c2 0 4-2.4 4-4.4s-1.6-4-4-4c-2 0-4 1.6-4 4 0 2 2 4.4 4 4.4z"></path>
<path fill="#010101" d="M46 24.4l-2 1.6c0 0 0 0 0 0.4v2.4h-4c0 0-0.4 0-0.4 0.4v2.4h-4c0 0-0.4 0-0.4 0.4 0 0 0 0.4 0.4 0.4h4.4c0 0 0.4 0 0.4-0.4v-2.8h4c0 0 0.4 0 0.4-0.4v-2.4l1.2-2 0.8 0.8 0.8-2-2 0.8 0.4 0.4z"></path>
<path fill="#010101" d="M36 27.2h2.4v3.6h-2.4v-3.6z"></path>
<path fill="#010101" d="M40.4 24.4h2.4v3.6h-2.4v-3.6z"></path>
</svg>
