<!-- Generated by IcoMoon.io -->
<svg version="1.1" xmlns="http://www.w3.org/2000/svg" width="64" height="64" viewBox="0 0 64 64">
<title>aqa-default-book</title>
<path fill="#010101" d="M16 14c0 0 0 0 0 0-0.4 0-0.8 0-1.2 0.4s-0.8 1.2-0.8 1.6v25.2c0 0.8 0.8 1.6 1.6 1.6 4 0 10.4 0.8 14.8 5.6v-26.4c0-0.4 0-0.8-0.4-0.8-3.2-6-10.4-6.8-14-7.2z"></path>
<path fill="#010101" d="M50 40.8v-24.8c0-0.4 0-0.8-0.4-1.2s-0.8-0.4-1.2-0.4c0 0 0 0 0 0-4 0-10.8 0.8-14.8 6.8 0 0.4-0.4 0.4-0.4 0.8v26c4.4-4.8 10.8-5.6 14.8-5.6 1.2 0 2-0.8 2-1.6z"></path>
<path fill="#010101" d="M53.6 20h-1.2v20.8c0 2.4-2 4.4-4.4 4.4-3.2 0-8.8 0.8-12.4 4.4 6.8-1.6 13.6-0.4 17.6 0.4 0.4 0 1.2 0 1.6-0.4s0.8-0.8 0.8-1.2v-26.8c-0.4-0.8-1.2-1.6-2-1.6z"></path>
<path fill="#010101" d="M11.6 40.8v-20.8h-1.2c-0.8 0-1.6 0.8-1.6 1.6v26.4c0 0.4 0.4 0.8 0.8 1.2s0.8 0.4 1.6 0.4c4-0.8 11.2-2 17.6-0.4-4-3.6-9.2-4.4-12.4-4.4-2.8 0.4-4.8-1.6-4.8-4z"></path>
<path fill="#000" d="M32 63.6c-17.6 0-31.6-14.4-31.6-31.6s14-31.6 31.6-31.6 31.6 14.4 31.6 31.6-14 31.6-31.6 31.6zM32 3.2c-16 0-28.8 12.8-28.8 28.8s12.8 28.8 28.8 28.8c16 0 28.8-12.8 28.8-28.8s-12.8-28.8-28.8-28.8z"></path>
</svg>
