<!-- Generated by IcoMoon.io -->
<svg version="1.1" xmlns="http://www.w3.org/2000/svg" width="64" height="64" viewBox="0 0 64 64">
<title>aqa-default-assessor</title>
<path fill="#000" d="M32 63.6c-17.6 0-31.6-14.4-31.6-31.6s14-31.6 31.6-31.6 31.6 14.4 31.6 31.6-14 31.6-31.6 31.6zM32 3.2c-16 0-28.8 12.8-28.8 28.8s12.8 28.8 28.8 28.8c16 0 28.8-12.8 28.8-28.8s-12.8-28.8-28.8-28.8z"></path>
<path fill="#010101" d="M37.2 18.4c2.4 1.6 4 4 4 6.8 0.8 0.4 2 0.8 3.2 0.8 4 0 7.2-3.2 7.2-7.2s-3.2-7.2-7.2-7.2c-4-0.4-7.2 2.8-7.2 6.8zM32.4 33.2c4 0 7.2-3.2 7.2-7.2s-3.2-7.2-7.2-7.2-7.2 3.2-7.2 7.2 3.2 7.2 7.2 7.2zM35.6 33.6h-6.4c-5.2 0-9.2 4.4-9.2 9.2v7.6h0.4c4.8 1.6 9.2 2 12.8 2 6.8 0 10.8-2 11.2-2l0.4-0.4v-7.6c0-4.4-4.4-8.8-9.2-8.8zM47.6 26h-6c0 2.4-1.2 4.8-2.8 6.4 4.4 1.2 8 5.6 8 10.4v2.4c6-0.4 9.6-2 9.6-2l0.4-0.4v-7.2c0-5.2-4.4-9.6-9.2-9.6zM19.6 25.6c1.6 0 2.8-0.4 4-1.2 0.4-2 1.6-4 3.2-5.6 0 0 0-0.4 0-0.4 0-4-3.2-7.2-7.2-7.2s-7.2 3.2-7.2 7.2c0 4 3.2 7.2 7.2 7.2zM26 32.4c-1.6-1.6-2.4-3.6-2.8-6-0.4 0-0.4 0-0.8 0h-6c-5.2 0-9.2 4-9.2 9.2v7.6h0.4c4 1.2 7.6 1.6 10.4 2v-2.4c0.4-4.8 3.6-9.2 8-10.4z"></path>
</svg>
