<!-- Generated by IcoMoon.io -->
<svg version="1.1" xmlns="http://www.w3.org/2000/svg" width="64" height="64" viewBox="0 0 64 64">
<title>aqa-default-question</title>
<path fill="#000" d="M32 63.6c-17.6 0-31.6-14.4-31.6-31.6s14-31.6 31.6-31.6 31.6 14.4 31.6 31.6-14 31.6-31.6 31.6zM32 3.2c-16 0-28.8 12.8-28.8 28.8s12.8 28.8 28.8 28.8c16 0 28.8-12.8 28.8-28.8s-12.8-28.8-28.8-28.8z"></path>
<path fill="#010101" d="M34 37.2c4.4 0 8.4-3.6 8.4-8.4s-3.6-8-8.4-8c-4.4 0-8.4 3.6-8.4 8.4s4 8 8.4 8z"></path>
<path fill="#010101" d="M27.2 38.8c-3.2 0-5.6 2.4-5.6 5.6v6.4c0 0.8 0.4 1.2 1.2 1.2h23.6c0.8 0 1.2-0.4 1.2-1.2v-6.4c0 0 0-0.4 0.4-0.4l4.4-12c-0.4 0-0.4-0.4-0.4-0.8v-13.6c0-2-1.6-3.6-3.6-3.6s-3.6 1.6-3.6 3.6v12.8l-3.2 8.4h-14.4z"></path>
<path fill="#010101" d="M13.2 19.6h2.8c0.4 0 1.2-0.4 1.2-0.8 0-0.8 0.4-1.6 0.8-2 0-0.8 0.8-0.8 1.6-0.8s1.2 0 2 0.8c0.4 0.4 0.8 1.2 0.8 1.6s0 0.8-0.4 0.8c0 0-0.4 0.8-1.6 1.6-1.2 1.2-2 2-2.8 3.2-0.4 0.8-0.4 2-0.4 4v0c0 0.8 0.4 1.2 1.2 1.2h2.4c0.8 0 1.2-0.4 1.2-1.2v0c0-1.6 0-2 0.4-2.4 0 0 0.4-0.8 1.6-1.6 1.2-1.2 2-2 2.4-2.8s0.8-2 0.8-2.8c0-2-0.8-3.6-2-4.8-1.6-1.2-3.6-2-5.6-2s-3.6 0.8-5.2 2c-1.6 1.2-2.4 2.8-2.4 4.8v0c0 0.8 0.4 1.2 1.2 1.2z"></path>
<path fill="#010101" d="M20.4 35.6c0.8 0 1.2-0.4 1.2-1.2v-2.4c0-0.8-0.4-1.2-1.2-1.2h-2.4c-0.4 0-0.8 0.4-0.8 1.2v2.4c0 0.8 0.4 1.2 1.2 1.2h2z"></path>
</svg>
